<svg xmlns="http://www.w3.org/2000/svg" xmlns:xlink="http://www.w3.org/1999/xlink" width="581.964" height="473.274" viewBox="0 0 581.964 473.274">
  <defs>
    <linearGradient id="linear-gradient" x1="0.5" x2="0.5" y2="1" gradientUnits="objectBoundingBox">
      <stop offset="0" stop-color="#2188ff"/>
      <stop offset="1" stop-color="#114480"/>
    </linearGradient>
  </defs>
  <g id="Group_162" data-name="Group 162" transform="translate(-624.036 -234.754)">
    <rect id="Rectangle_154" data-name="Rectangle 154" width="14.866" height="9.123" transform="translate(863.326 677.641)" fill="#f9b499"/>
    <rect id="Rectangle_155" data-name="Rectangle 155" width="14.866" height="9.123" transform="translate(900.719 677.641)" fill="#f9b499"/>
    <path id="Path_239" data-name="Path 239" d="M361.768,581.817l-7.445-93.08L351,402h79.516l-2.828,66.255-9.33,113.562H399s-1.6-72.318-.615-91.482a48.259,48.259,0,0,0-.192-7.365l-7.461-73.54-6.319,56.8a293.8,293.8,0,0,0-1.8,32.432v83.158Z" transform="translate(498.61 98.708)" fill="#002a5b"/>
    <rect id="Rectangle_156" data-name="Rectangle 156" width="79.292" height="5.288" transform="translate(849.586 500.7)" opacity="0.2"/>
    <path id="Path_240" data-name="Path 240" d="M358,188.041s-6.263-7.988-3.731-15.074a11.072,11.072,0,0,0,3.595-2.077c.208-.176.463-.24.583,0,.431.943,5.68,1.03,7.269,1.749,0,0-3.778,13.924-3.994,15.857A14.675,14.675,0,0,0,358,188.041Z" transform="translate(498.074 145.232)" fill="#2f2e41"/>
    <path id="Path_241" data-name="Path 241" d="M314.59,305.3l21.4,17.574L348.157,309.8l-4.481,62.413h79.516l-6.534-62.628,11.264,9.69,1.805-46.4s-17.351-16.488-33.559-18.932H369.893s-18.133,3.379-26.018,14.187Z" transform="translate(505.934 128.493)" fill="#0071f2"/>
    <path id="Path_242" data-name="Path 242" d="M317.145,321.93s-10.577,12.59-6.974,18.669c0,0,2.932,9.913,40.549,36.946l7.884-7.884-30.188-32.209,3.028-3.786Z" transform="translate(506.974 114.816)" fill="#f9b499"/>
    <path id="Path_243" data-name="Path 243" d="M361.12,389.564,369,381.68l15.5,6.51a5.176,5.176,0,0,1,1.941,8.052l-4.2,5.081a5.184,5.184,0,0,1-7.317.655Z" transform="translate(496.574 102.796)" fill="#f9b499"/>
    <path id="Path_244" data-name="Path 244" d="M347.3,653.169s-.9-16.216,15.322-17.574v-3.826s8.555-1.126,11.264,2.476c0,0,4.841-2.7,6.191,0l3.491,18.924Z" transform="translate(499.356 52.519)" fill="#0071f2"/>
    <path id="Path_245" data-name="Path 245" d="M445.457,653.169s.9-16.216-15.314-17.574v-3.826s-8.563-1.126-11.263,2.476c0,0-4.849-2.7-6.2,0l-3.491,18.924Z" transform="translate(486.904 52.519)" fill="#0071f2"/>
    <path id="Path_246" data-name="Path 246" d="M380.332,640.485s-4.961-4.617-13.852-4.849V631.81S376.953,632.936,380.332,640.485Z" transform="translate(495.496 52.477)" opacity="0.2"/>
    <path id="Path_247" data-name="Path 247" d="M417.79,640.485s4.953-4.617,13.852-4.849V631.81S421.153,632.936,417.79,640.485Z" transform="translate(485.174 52.477)" opacity="0.2"/>
    <path id="Path_248" data-name="Path 248" d="M531.654,368.575l-81.8-2.508-2.6-108.777q19.26.839,39.941.895,22.239,0,42.833-.895Q530.848,312.976,531.654,368.575Z" transform="translate(479.247 127.819)" fill="#ccc"/>
    <g id="Group_150" data-name="Group 150" transform="translate(937.218 404.968)" opacity="0.2">
      <path id="Path_249" data-name="Path 249" d="M492.024,285.082c-15.793,0-31.1-1.054-31.354-1.07l.056-.8c.431,0,43.488,3,59.553-1.062l.192.8C513.888,284.586,502.84,285.082,492.024,285.082Z" transform="translate(-460.67 -282.15)"/>
    </g>
    <g id="Group_151" data-name="Group 151" transform="translate(938.831 415.712)" opacity="0.2">
      <path id="Path_250" data-name="Path 250" d="M494.044,298.532c-15.785,0-31.1-1.054-31.354-1.07l.056-.8c.431,0,43.488,3,59.553-1.062l.192.759C515.908,298.036,504.86,298.532,494.044,298.532Z" transform="translate(-462.69 -295.6)"/>
    </g>
    <g id="Group_152" data-name="Group 152" transform="translate(938.815 428.462)" opacity="0.2">
      <path id="Path_251" data-name="Path 251" d="M462.758,315.011l-.088-.8c.328,0,32.752-3.747,58.131-2.333l-.048.8C495.446,311.265,463.085,314.979,462.758,315.011Z" transform="translate(-462.67 -311.561)"/>
    </g>
    <g id="Group_153" data-name="Group 153" transform="translate(937.99 441.184)" opacity="0.2">
      <rect id="Rectangle_157" data-name="Rectangle 157" width="0.791" height="58.251" transform="translate(0 0.791) rotate(-89.12)"/>
    </g>
    <g id="Group_154" data-name="Group 154" transform="translate(939.926 450.126)" opacity="0.2">
      <path id="Path_252" data-name="Path 252" d="M464.084,341.26l-.024-.791,55.016-1.789.024.791Z" transform="translate(-464.06 -338.68)"/>
    </g>
    <g id="Group_155" data-name="Group 155" transform="translate(941.539 461.054)" opacity="0.2">
      <path id="Path_253" data-name="Path 253" d="M466.1,353.87l-.016-.791,52.156-.719.008.791Z" transform="translate(-466.08 -352.36)"/>
    </g>
    <g id="Group_156" data-name="Group 156" transform="translate(942.419 470.924)" opacity="0.2">
      <rect id="Rectangle_158" data-name="Rectangle 158" width="52.523" height="0.791" transform="translate(0 1.229) rotate(-1.34)"/>
    </g>
    <g id="Group_157" data-name="Group 157" transform="translate(942.442 480.769)" opacity="0.2">
      <path id="Path_254" data-name="Path 254" d="M467.218,378.366l-.008-.791,52.507-.535.008.791Z" transform="translate(-467.21 -377.04)"/>
    </g>
    <path id="Path_255" data-name="Path 255" d="M486.869,258.35l-.5,5.129a3.531,3.531,0,0,0,3.675,3.874l11.815-.527a3.539,3.539,0,0,0,3.323-4.13l-.751-4.346Z" transform="translate(471.382 127.606)" fill="#f9b499"/>
    <path id="Path_256" data-name="Path 256" d="M491.154,251.1,487,256.385l25.083-.072-4.609-4.649a6.615,6.615,0,0,0-3.555-1.853l-6.391-1.118a6.59,6.59,0,0,0-6.375,2.4Z" transform="translate(471.251 129.571)" fill="#f9b499"/>
    <path id="Path_257" data-name="Path 257" d="M382.66,234.13h26.274v19.619a6.654,6.654,0,0,1-6.654,6.654H389.322a6.654,6.654,0,0,1-6.654-6.654V234.13Z" transform="translate(492.241 132.478)" fill="#f9b499"/>
    <path id="Path_258" data-name="Path 258" d="M515.985,298.847a11.439,11.439,0,0,1-8.036-2.8,9.921,9.921,0,0,1-3.028-7.988c1.126-18.589,17.175-19.8,17.335-19.8l.048.8c-.631,0-15.513,1.19-16.592,19.068a9.25,9.25,0,0,0,2.764,7.373,10.847,10.847,0,0,0,7.988,2.58,17.382,17.382,0,0,0,12.286-5.736c2.82-3.107,4.114-6.271,3.85-9.41-.3-3.491-2.588-6.918-6.782-10.193l.487-.623c4.378,3.411,6.758,7.03,7.078,10.752.288,3.363-1.07,6.726-4.05,10a18.173,18.173,0,0,1-12.853,6Z" transform="translate(467.652 125.612)" fill="#2f2e41"/>
    <path id="Path_259" data-name="Path 259" d="M518.653,292.605l-.783-.1,2.684-19.372,8.995,18.165-.711.351-7.852-15.873Z" transform="translate(465.041 124.633)" fill="#2f2e41"/>
    <path id="Path_260" data-name="Path 260" d="M510.8,290.5l-.176-.8c.5-.112,12.278-2.812,16.576-2.844v.8C522.994,287.715,510.924,290.479,510.8,290.5Z" transform="translate(466.499 121.871)" fill="#2f2e41"/>
    <path id="Path_262" data-name="Path 262" d="M661.938,338.8v.471c0,.32.064.8.12,1.4.072,1.286.2,3.067.359,5.376.3,4.673.719,11.431,1.174,19.787.927,16.664,2.013,39.806,3.131,65.312s2.141,48.617,2.972,65.376c.423,8.34.8,15.1,1,19.787.12,2.325.208,4.13.272,5.384a8.662,8.662,0,0,0,.064,1.414,4.652,4.652,0,0,1,0,.471v-.471c0-.312-.064-.8-.112-1.4-.08-1.278-.208-3.068-.359-5.384-.32-4.665-.719-11.423-1.182-19.779-.927-16.664-2.013-39.814-3.131-65.376s-2.133-48.609-2.972-65.376c-.423-8.332-.8-15.082-1.015-19.787-.1-2.325-.2-4.13-.256-5.384a8.5,8.5,0,0,0-.064-1.4,3.77,3.77,0,0,1,0-.423Z" transform="translate(436.06 131.422)" fill="#e0e0e0"/>
    <path id="Path_263" data-name="Path 263" d="M642.09,396a4.143,4.143,0,0,1,.847.687c.527.479,1.286,1.2,2.157,2.069,1.781,1.781,4.194,4.29,6.79,7.11l6.63,7.245,2.013,2.189a5.012,5.012,0,0,1,.7.839,4.737,4.737,0,0,1-.847-.7c-.527-.471-1.278-1.182-2.141-2.077-1.765-1.8-4.138-4.33-6.742-7.15l-6.678-7.189-2.005-2.229A4.708,4.708,0,0,1,642.09,396Z" transform="translate(440.051 119.915)" fill="#e0e0e0"/>
    <path id="Path_264" data-name="Path 264" d="M667.74,414.886c-.1-.1,4.841-5.288,11.056-11.543s11.335-11.319,11.439-11.184-4.849,5.28-11.064,11.535S667.835,414.982,667.74,414.886Z" transform="translate(434.892 120.688)" fill="#e0e0e0"/>
    <path id="Path_265" data-name="Path 265" d="M667.66,466.028a4.872,4.872,0,0,1,.943-.607l2.652-1.486c2.237-1.278,5.32-3,8.659-5.049s6.295-3.994,8.42-5.424l2.564-1.678a5.081,5.081,0,0,1,.959-.575,8.626,8.626,0,0,1-.847.743c-.559.447-1.382,1.062-2.4,1.821-2.077,1.51-5.009,3.507-8.356,5.592a99.451,99.451,0,0,1-8.787,4.921c-1.142.591-2.077,1.055-2.732,1.35a4,4,0,0,1-1.078.391Z" transform="translate(434.907 108.808)" fill="#e0e0e0"/>
    <path id="Path_266" data-name="Path 266" d="M639.56,452.55a4.163,4.163,0,0,1,.951.455c.575.3,1.422.8,2.444,1.358,2.061,1.166,4.9,2.82,7.988,4.665s5.911,3.547,7.924,4.793c1.007.623,1.821,1.134,2.4,1.51a4.3,4.3,0,0,1,.8.6,3.317,3.317,0,0,1-.935-.431c-.591-.312-1.422-.8-2.46-1.358-2.053-1.182-4.889-2.82-7.988-4.681s-5.9-3.555-7.916-4.793c-1.015-.631-1.821-1.142-2.4-1.518A3.381,3.381,0,0,1,639.56,452.55Z" transform="translate(440.56 108.539)" fill="#e0e0e0"/>
    <path id="Path_267" data-name="Path 267" d="M634,495.94a5,5,0,0,1,1.19.583l3.155,1.725c2.652,1.486,6.295,3.579,10.257,5.911s7.621,4.473,10.249,6.039l3.083,1.885a6.738,6.738,0,0,1,1.086.751,6.537,6.537,0,0,1-1.19-.575l-3.2-1.741c-2.652-1.486-6.311-3.579-10.257-5.911s-7.629-4.473-10.257-6.039l-3.075-1.877A6.733,6.733,0,0,1,634,495.94Z" transform="translate(441.679 99.81)" fill="#e0e0e0"/>
    <path id="Path_268" data-name="Path 268" d="M669.61,511.385a8.966,8.966,0,0,1,1.182-.8l3.291-2.005c2.788-1.694,6.614-4.05,10.768-6.75s7.876-5.256,10.537-7.118l3.2-2.2a7.487,7.487,0,0,1,1.206-.8,9.314,9.314,0,0,1-1.094.927c-.7.559-1.757,1.358-3.06,2.333-2.564,1.933-6.295,4.537-10.473,7.253s-8.044,5.025-10.864,6.638c-1.422.8-2.556,1.438-3.379,1.861A8.265,8.265,0,0,1,669.61,511.385Z" transform="translate(434.515 100.661)" fill="#e0e0e0"/>
    <path id="Path_273" data-name="Path 273" d="M658.34,612.041a5.952,5.952,0,0,1,3.627-.375,18.2,18.2,0,0,1,3.842,1.422,14.643,14.643,0,0,0,13.884-.711,13.471,13.471,0,0,0,2.245-1.717,3.918,3.918,0,0,0,.655-.8,31.462,31.462,0,0,1-3.1,2.141,15.513,15.513,0,0,1-8.707,1.845c-3.555-.208-6.271-2.317-8.731-2.564a5.592,5.592,0,0,0-2.868.192C658.579,611.729,658.316,612.017,658.34,612.041Z" transform="translate(436.783 56.893)" fill="#f5f5f5"/>
    <path id="Path_274" data-name="Path 274" d="M661,633.53a7.19,7.19,0,0,0,3.131-.615c1.885-.631,4.218-2.077,6.95-3.155a10.9,10.9,0,0,1,3.994-.8,7.19,7.19,0,0,1,3.2.727,7.517,7.517,0,0,1,2.325,1.989,1.893,1.893,0,0,0-.359-.8,5.081,5.081,0,0,0-1.757-1.6,7.366,7.366,0,0,0-3.4-.911,11.183,11.183,0,0,0-4.21.8c-2.828,1.126-5.129,2.564-6.878,3.323S661,633.443,661,633.53Z" transform="translate(436.247 53.169)" fill="#f5f5f5"/>
    <path id="Path_275" data-name="Path 275" d="M663.25,645.176a8.449,8.449,0,0,0,2.4.8,45.109,45.109,0,0,0,5.935,1,44.356,44.356,0,0,0,6.007.168,8.906,8.906,0,0,0,2.476-.3c0-.184-3.842,0-8.436-.487S663.29,645.032,663.25,645.176Z" transform="translate(435.795 49.792)" fill="#f5f5f5"/>
    <g id="Group_161" data-name="Group 161" transform="matrix(0.978, -0.208, 0.208, 0.978, -30.742, 194.664)">
      <rect id="Rectangle_159" data-name="Rectangle 159" width="76.999" height="113.042" transform="translate(653.837 215.696) rotate(-13.37)" fill="#e0e0e0"/>
      <rect id="Rectangle_160" data-name="Rectangle 160" width="76.999" height="113.042" transform="translate(648.005 212.451) rotate(-13.37)" fill="#ebebeb"/>
      <rect id="Rectangle_161" data-name="Rectangle 161" width="76.999" height="110.878" transform="translate(641.988 211.475) rotate(-13.37)" fill="#f5f5f5"/>
      <path id="Path_276" data-name="Path 276" d="M240.36,172.2c0,.184-19.467,4.961-43.584,10.688s-43.7,10.257-43.736,10.057,19.475-4.961,43.584-10.7S240.32,172.039,240.36,172.2Z" transform="translate(538.433 144.938)" fill="#e0e0e0"/>
      <path id="Path_277" data-name="Path 277" d="M171.547,63.448c0,.12-13.269,3.387-29.693,7.285s-29.78,6.99-29.8,6.846,13.269-3.379,29.7-7.285S171.515,63.281,171.547,63.448Z" transform="translate(546.679 166.816)" fill="#e0e0e0"/>
      <path id="Path_278" data-name="Path 278" d="M173.877,73.189c0,.128-13.269,3.4-29.693,7.293s-29.78,6.99-29.8,6.846,13.261-3.387,29.7-7.285S173.845,73.037,173.877,73.189Z" transform="translate(546.211 164.856)" fill="#e0e0e0"/>
      <path id="Path_279" data-name="Path 279" d="M176.247,83c0,.12-13.261,3.387-29.693,7.293s-29.772,6.99-29.8,6.846,13.261-3.387,29.7-7.293S176.183,82.871,176.247,83Z" transform="translate(545.734 162.882)" fill="#e0e0e0"/>
      <path id="Path_280" data-name="Path 280" d="M178.543,92.789c0,.12-13.269,3.387-29.7,7.293s-29.772,6.966-29.772,6.83,13.261-3.4,29.7-7.293S178.511,92.661,178.543,92.789Z" transform="translate(545.267 160.913)" fill="#e0e0e0"/>
      <path id="Path_281" data-name="Path 281" d="M180.869,102.579c0,.128-13.269,3.4-29.7,7.293s-29.764,6.99-29.788,6.846,13.261-3.387,29.693-7.285S180.829,102.459,180.869,102.579Z" transform="translate(544.802 158.943)" fill="#e0e0e0"/>
      <path id="Path_282" data-name="Path 282" d="M183.2,112.379c0,.12-13.269,3.387-29.7,7.293s-29.764,6.99-29.788,6.846,13.253-3.387,29.693-7.293S183.159,112.259,183.2,112.379Z" transform="translate(544.334 156.972)" fill="#e0e0e0"/>
      <path id="Path_283" data-name="Path 283" d="M185.529,122.189c0,.12-13.269,3.379-29.7,7.285s-29.764,6.982-29.788,6.846,13.253-3.387,29.693-7.293S185.489,122.037,185.529,122.189Z" transform="translate(543.865 154.999)" fill="#e0e0e0"/>
    </g>
    <g id="freepik--Floor--inject-4" transform="translate(624.036 707.365)">
      <path id="Path_284" data-name="Path 284" d="M650.584,661.028c0,.184-130.289.335-290.982.335s-290.982-.152-290.982-.335S198.893,660.7,359.6,660.7,650.584,660.836,650.584,661.028Z" transform="translate(-68.62 -660.7)" fill="#3f3d56"/>
    </g>
    <path id="Path_287" data-name="Path 287" d="M228.708,561.542c-6.83-6.471-6.487-17.766-3.083-26.529s10.84-15.513,19.132-19.971a60.6,60.6,0,0,1,52.8-1.7,25.043,25.043,0,0,0-20.266,11.895c-3.73,6.215-4.561,13.756-7.693,20.306a31.953,31.953,0,0,1-40.892,15.977" transform="translate(894.308 93.363)" fill="#002a5b"/>
    <path id="Path_288" data-name="Path 288" d="M223.384,497.918c-7.557-8.907-8.563-23.23-7.453-34.869s3.85-23.342,1.973-34.877c-1.086-6.846-3.739-13.372-4.641-20.242s.375-14.627,5.7-19.06c6.111-5.128,15.737-3.842,22.112.895S251.1,402.058,253.8,409.543c5.911,16.464,8.092,34.685,3.219,51.461s-16.272,31.817-33,36.882" transform="translate(896.372 118.013)" fill="url(#linear-gradient)"/>
    <path id="Path_289" data-name="Path 289" d="M221.425,597.222a7.275,7.275,0,0,1,0-1.023v-2.948c.1-2.564.352-6.255.927-10.792a139.417,139.417,0,0,1,2.9-15.817,72.967,72.967,0,0,1,7.19-18.317,75.842,75.842,0,0,1,11.807-15.769,74.982,74.982,0,0,1,12.382-10.265c1.885-1.278,3.707-2.293,5.28-3.2s3.012-1.534,4.162-2.085l2.724-1.142a5.133,5.133,0,0,1,.959-.359,8.2,8.2,0,0,1-.911.471l-2.668,1.286c-1.126.591-2.564,1.278-4.1,2.181s-3.347,1.957-5.208,3.275a77.271,77.271,0,0,0-23.853,25.986c-6.95,12.15-8.859,24.931-10.257,33.878-.623,4.529-.943,8.2-1.11,10.76-.08,1.278-.128,2.213-.168,2.932A5.516,5.516,0,0,1,221.425,597.222Z" transform="translate(894.68 91.873)" fill="#2f2e41"/>
    <path id="Path_290" data-name="Path 290" d="M136.661,482.18c-13.988,8.436-13.932,16.112-11.535,23.35s10.9,12.286,18.022,9.586c3.994-1.534,6.934-5.025,9.418-8.532s4.793-7.269,8.308-9.794,8.54-3.491,12.038-.991" transform="translate(914.292 98.578)" fill="#2f2e41"/>
    <g id="Group_159" data-name="Group 159" transform="translate(1038.208 580.758)" opacity="0.3">
      <path id="Path_291" data-name="Path 291" d="M136.661,482.18c-13.988,8.436-13.932,16.112-11.535,23.35s10.9,12.286,18.022,9.586c3.994-1.534,6.934-5.025,9.418-8.532s4.793-7.269,8.308-9.794,8.54-3.491,12.038-.991" transform="translate(-123.916 -482.18)" fill="#002a5b"/>
    </g>
    <path id="Path_292" data-name="Path 292" d="M126.744,488.984c3.651-5.057,12.685-6.518,18.373-3.994S155,492.5,158.7,497.459s7.373,10.257,12.55,13.732,12.414,4.729,17.574,1.278a15.058,15.058,0,0,0,5.959-10.329,34.221,34.221,0,0,0-.8-12.19c-1.286-5.863-3.243-11.982-7.94-15.7-5.224-4.154-12.486-4.346-19.172-4.13-7.693.248-15.385.8-22.615,3.475s-14.523,8.38-17.574,15.385" transform="translate(913.736 101.017)" fill="#2188ff"/>
    <path id="Path_293" data-name="Path 293" d="M197.807,577.32a1.022,1.022,0,0,1,0-.312v-.895c0-.847,0-2.013-.112-3.475-.1-3.06-.224-7.405-.375-12.781s-.383-11.807-.8-18.908-.919-14.938-2-23.078a74.9,74.9,0,0,0-2.325-11.7,61.782,61.782,0,0,0-9.794-18.788,56.711,56.711,0,0,0-5.9-6.479,43.063,43.063,0,0,0-10.465-7.126c-.679-.32-1.278-.623-1.805-.847l-1.374-.527-.8-.328-.28-.144.3.08.863.28,1.406.5c.551.192,1.15.487,1.845.8a41.776,41.776,0,0,1,10.664,7.03,55.122,55.122,0,0,1,6.015,6.495,59.827,59.827,0,0,1,5.44,8.516,61.509,61.509,0,0,1,4.362,10.337,73.436,73.436,0,0,1,2.341,11.815c1.094,8.164,1.6,15.977,1.965,23.078s.535,13.532.655,18.932.136,9.754.168,12.781v4.346A1.463,1.463,0,0,1,197.807,577.32Z" transform="translate(906.675 100.64)" fill="#2f2e41"/>
    <path id="Path_294" data-name="Path 294" d="M212.569,572.882a39.268,39.268,0,0,1-1.526-6.015,62.732,62.732,0,0,1-.647-16.855,112.484,112.484,0,0,1,5.32-24.42c2.876-8.971,6.774-18.613,10.089-28.942a131.694,131.694,0,0,0,3.994-15.322,136.6,136.6,0,0,0,1.989-14.611,212.025,212.025,0,0,0,.447-24.987c-.24-7.126-.623-12.885-.855-16.855l-.272-4.577v-1.19a1.739,1.739,0,0,1,0-.407,1.6,1.6,0,0,1,0,.391c0,.312.064.695.12,1.2q.136,1.6.383,4.569c.3,3.994.751,9.73,1.046,16.863a206.275,206.275,0,0,1-.3,25.043,135.138,135.138,0,0,1-1.965,14.675,130.717,130.717,0,0,1-3.994,15.385c-3.347,10.385-7.253,19.971-10.137,28.934a114.07,114.07,0,0,0-5.44,24.356,65.5,65.5,0,0,0,.439,16.775c.344,1.965.663,3.475.935,4.49.12.487.216.871.28,1.15A1.757,1.757,0,0,1,212.569,572.882Z" transform="translate(896.954 111.348)" fill="#2f2e41"/>
    <path id="Path_295" data-name="Path 295" d="M221.425,597.222a7.275,7.275,0,0,1,0-1.023v-2.948c.1-2.564.352-6.255.927-10.792a139.417,139.417,0,0,1,2.9-15.817,72.967,72.967,0,0,1,7.19-18.317,75.842,75.842,0,0,1,11.807-15.769,74.982,74.982,0,0,1,12.382-10.265c1.885-1.278,3.707-2.293,5.28-3.2s3.012-1.534,4.162-2.085l2.724-1.142a5.133,5.133,0,0,1,.959-.359,8.2,8.2,0,0,1-.911.471l-2.668,1.286c-1.126.591-2.564,1.278-4.1,2.181s-3.347,1.957-5.208,3.275a77.271,77.271,0,0,0-23.853,25.986c-6.95,12.15-8.859,24.931-10.257,33.878-.623,4.529-.943,8.2-1.11,10.76-.08,1.278-.128,2.213-.168,2.932A5.516,5.516,0,0,1,221.425,597.222Z" transform="translate(894.68 91.873)" fill="#2f2e41"/>
    <path id="Path_296" data-name="Path 296" d="M197.807,577.32a1.022,1.022,0,0,1,0-.312v-.895c0-.847,0-2.013-.112-3.475-.1-3.06-.224-7.405-.375-12.781s-.383-11.807-.8-18.908-.919-14.938-2-23.078a74.9,74.9,0,0,0-2.325-11.7,61.782,61.782,0,0,0-9.794-18.788,56.711,56.711,0,0,0-5.9-6.479,43.063,43.063,0,0,0-10.465-7.126c-.679-.32-1.278-.623-1.805-.847l-1.374-.527-.8-.328-.28-.144.3.08.863.28,1.406.5c.551.192,1.15.487,1.845.8a41.776,41.776,0,0,1,10.664,7.03,55.122,55.122,0,0,1,6.015,6.495,59.827,59.827,0,0,1,5.44,8.516,61.509,61.509,0,0,1,4.362,10.337,73.436,73.436,0,0,1,2.341,11.815c1.094,8.164,1.6,15.977,1.965,23.078s.535,13.532.655,18.932.136,9.754.168,12.781v4.346A1.463,1.463,0,0,1,197.807,577.32Z" transform="translate(906.675 100.64)" fill="#2f2e41"/>
    <path id="Path_297" data-name="Path 297" d="M212.569,572.882a39.268,39.268,0,0,1-1.526-6.015,62.732,62.732,0,0,1-.647-16.855,112.484,112.484,0,0,1,5.32-24.42c2.876-8.971,6.774-18.613,10.089-28.942a131.694,131.694,0,0,0,3.994-15.322,136.6,136.6,0,0,0,1.989-14.611,212.025,212.025,0,0,0,.447-24.987c-.24-7.126-.623-12.885-.855-16.855l-.272-4.577v-1.19a1.739,1.739,0,0,1,0-.407,1.6,1.6,0,0,1,0,.391c0,.312.064.695.12,1.2q.136,1.6.383,4.569c.3,3.994.751,9.73,1.046,16.863a206.275,206.275,0,0,1-.3,25.043,135.138,135.138,0,0,1-1.965,14.675,130.717,130.717,0,0,1-3.994,15.385c-3.347,10.385-7.253,19.971-10.137,28.934a114.07,114.07,0,0,0-5.44,24.356,65.5,65.5,0,0,0,.439,16.775c.344,1.965.663,3.475.935,4.49.12.487.216.871.28,1.15A1.757,1.757,0,0,1,212.569,572.882Z" transform="translate(896.954 111.348)" fill="#2f2e41"/>
    <g id="Group_160" data-name="Group 160" transform="translate(1068.455 530.048)" opacity="0.2">
      <path id="Path_298" data-name="Path 298" d="M221.425,597.222a7.275,7.275,0,0,1,0-1.023v-2.948c.1-2.564.352-6.255.927-10.792a139.417,139.417,0,0,1,2.9-15.817,72.967,72.967,0,0,1,7.19-18.317,75.842,75.842,0,0,1,11.807-15.769,74.982,74.982,0,0,1,12.382-10.265c1.885-1.278,3.707-2.293,5.28-3.2s3.012-1.534,4.162-2.085l2.724-1.142a5.133,5.133,0,0,1,.959-.359,8.2,8.2,0,0,1-.911.471l-2.668,1.286c-1.126.591-2.564,1.278-4.1,2.181s-3.347,1.957-5.208,3.275a77.271,77.271,0,0,0-23.853,25.986c-6.95,12.15-8.859,24.931-10.257,33.878-.623,4.529-.943,8.2-1.11,10.76-.08,1.278-.128,2.213-.168,2.932A5.516,5.516,0,0,1,221.425,597.222Z" transform="translate(-173.775 -438.175)"/>
      <path id="Path_299" data-name="Path 299" d="M197.807,577.32a1.022,1.022,0,0,1,0-.312v-.895c0-.847,0-2.013-.112-3.475-.1-3.06-.224-7.405-.375-12.781s-.383-11.807-.8-18.908-.919-14.938-2-23.078a74.9,74.9,0,0,0-2.325-11.7,61.782,61.782,0,0,0-9.794-18.788,56.711,56.711,0,0,0-5.9-6.479,43.063,43.063,0,0,0-10.465-7.126c-.679-.32-1.278-.623-1.805-.847l-1.374-.527-.8-.328-.28-.144.3.08.863.28,1.406.5c.551.192,1.15.487,1.845.8a41.776,41.776,0,0,1,10.664,7.03,55.122,55.122,0,0,1,6.015,6.495,59.827,59.827,0,0,1,5.44,8.516,61.509,61.509,0,0,1,4.362,10.337,73.436,73.436,0,0,1,2.341,11.815c1.094,8.164,1.6,15.977,1.965,23.078s.535,13.532.655,18.932.136,9.754.168,12.781v4.346A1.463,1.463,0,0,1,197.807,577.32Z" transform="translate(-161.78 -429.408)"/>
      <path id="Path_300" data-name="Path 300" d="M212.569,572.882a39.268,39.268,0,0,1-1.526-6.015,62.732,62.732,0,0,1-.647-16.855,112.484,112.484,0,0,1,5.32-24.42c2.876-8.971,6.774-18.613,10.089-28.942a131.694,131.694,0,0,0,3.994-15.322,136.6,136.6,0,0,0,1.989-14.611,212.025,212.025,0,0,0,.447-24.987c-.24-7.126-.623-12.885-.855-16.855l-.272-4.577v-1.19a1.739,1.739,0,0,1,0-.407,1.6,1.6,0,0,1,0,.391c0,.312.064.695.12,1.2q.136,1.6.383,4.569c.3,3.994.751,9.73,1.046,16.863a206.275,206.275,0,0,1-.3,25.043,135.138,135.138,0,0,1-1.965,14.675,130.717,130.717,0,0,1-3.994,15.385c-3.347,10.385-7.253,19.971-10.137,28.934a114.07,114.07,0,0,0-5.44,24.356,65.5,65.5,0,0,0,.439,16.775c.344,1.965.663,3.475.935,4.49.12.487.216.871.28,1.15A1.757,1.757,0,0,1,212.569,572.882Z" transform="translate(-171.501 -418.7)"/>
    </g>
    <path id="Path_301" data-name="Path 301" d="M183.23,617.8l8.2,37.9h35.66l7.677-37.9Z" transform="translate(902.36 51.296)"/>
    <path id="Path_302" data-name="Path 302" d="M183.23,617.8l8.2,37.9h35.66l7.677-37.9Z" transform="translate(902.36 45.296)" opacity="0.2"/>
    <path id="Path_303" data-name="Path 303" d="M231.508,641.66a27.512,27.512,0,0,0-5.784-3.323,20.416,20.416,0,0,0-7.038-1.406,24.564,24.564,0,0,0-8.635,1.6c-2.988,1.015-5.784,2.189-8.5,2.828a20.173,20.173,0,0,1-7.357.224,15.128,15.128,0,0,1-4.721-1.486,7.648,7.648,0,0,1-1.134-.735c-.248-.176-.375-.28-.359-.3s.559.328,1.6.8a16.7,16.7,0,0,0,4.681,1.286,20.584,20.584,0,0,0,7.189-.352c2.628-.647,5.424-1.845,8.436-2.852a24.475,24.475,0,0,1,8.859-1.6,20.339,20.339,0,0,1,7.189,1.6,18.459,18.459,0,0,1,4.274,2.492,13.21,13.21,0,0,1,1.023.879C231.4,641.54,231.524,641.66,231.508,641.66Z" transform="translate(531.405 51.566)" opacity="0.1"/>
    <path id="Path_305" data-name="Path 305" d="M231.96,638.389a30.741,30.741,0,0,0-5.935-3.5,21.778,21.778,0,0,0-7.189-1.726,23.168,23.168,0,0,0-8.979,1.558,82.782,82.782,0,0,1-8.787,2.892,22.925,22.925,0,0,1-7.6,0,17.057,17.057,0,0,1-4.857-1.526,8.532,8.532,0,0,1-1.182-.727c-.256-.192-.383-.3-.375-.32s.583.344,1.654.8a19.337,19.337,0,0,0,4.849,1.286,23.041,23.041,0,0,0,7.405-.144,90.738,90.738,0,0,0,8.723-2.908,23.069,23.069,0,0,1,9.147-1.6,21.489,21.489,0,0,1,7.349,1.9,20.6,20.6,0,0,1,4.386,2.644,11.312,11.312,0,0,1,1.046.9C231.872,638.253,231.976,638.365,231.96,638.389Z" transform="translate(901.592 48.345)" fill="#fff"/>
    <path id="Path_306" data-name="Path 306" d="M239.654,616.419H174.022l-1.5-12.63h67.134Z" transform="translate(904.515 54.114)"/>
    <path id="Path_307" data-name="Path 307" d="M382.66,245.6V240.29s11.719,6.83,23.829,1.422C406.489,241.712,399.483,249.277,382.66,245.6Z" transform="translate(492.241 131.239)" fill="#f4a48e"/>
    <ellipse id="Ellipse_59" data-name="Ellipse 59" cx="6.926" cy="9.203" rx="6.926" ry="9.203" transform="translate(848.342 336.088) rotate(-22.81)" fill="#f9b499"/>
    <ellipse id="Ellipse_60" data-name="Ellipse 60" cx="9.203" cy="6.926" rx="9.203" ry="6.926" transform="translate(910.097 348.713) rotate(-72.48)" fill="#f9b499"/>
    <path id="Path_308" data-name="Path 308" d="M358,188.041s-6.263-7.988-3.731-15.074a11.072,11.072,0,0,0,3.595-2.077c.208-.176.463-.24.583,0,.431.943,5.68,1.03,7.269,1.749,0,0-3.778,13.924-3.994,15.857A14.675,14.675,0,0,0,358,188.041Z" transform="translate(498.074 145.232)" opacity="0.2"/>
    <ellipse id="Ellipse_61" data-name="Ellipse 61" cx="28.55" cy="36.315" rx="28.55" ry="36.315" transform="translate(859.491 302.966)" fill="#f9b499"/>
    <path id="Path_309" data-name="Path 309" d="M416.276,181.323s-1.406-16.176-9.514-23.965c0,0-10.824,6.391-16.033,6.319a2.4,2.4,0,0,1-2.309-2.588,7.853,7.853,0,0,1,2.972-5.592s-30.675,17.454-35.188,6.279c0,0-7.725,5.057-8.4-.192,0,0,0-3.723,4.9-6.766,0,0-10.984,1.015-10.137-4.05,0,0-.344-5.073,11.487-5.592,0,0-13.684-4.058-7.94-10.137,0,0,1.342-2.053,9.043,1.174a2.98,2.98,0,0,0,3.994-1.741v-.08s-13.58-2.564-6.135-11.351c0,0,2.788-1.35,2.916,2.4,0,0,2.325,4.058,9.418,4.737,0,0,11.982.168,21.121-2.029,0,0,14.379-3.012,25.467,7.1a23.645,23.645,0,0,1,5.2,7.189,9.77,9.77,0,0,0,2.964,3.707,11.934,11.934,0,0,1,3.091,2.948c2.956,4.386,7.8,15-1.31,29.293C421.908,178.367,417.994,178.08,416.276,181.323Z" transform="translate(500.315 154.874)" fill="#2f2e41"/>
  </g>
</svg>
